<svg width="136" height="31" viewBox="0 0 136 31" fill="none" xmlns="http://www.w3.org/2000/svg">
<path fill-rule="evenodd" clip-rule="evenodd" d="M31.6685 12.3314C31.704 12.5018 31.7367 12.6731 31.7662 12.845C31.8553 10.1833 31.7441 7.47748 31.6415 4.98174C31.5738 3.33301 31.5097 1.77598 31.5097 0.383914C30.082 0.383914 28.4857 0.321848 26.7952 0.256131C24.2525 0.157271 21.4972 0.0501494 18.7841 0.133605L18.7836 0.132876C16.1731 0.211268 13.6027 0.471465 11.3035 1.08276L11.3035 1.08279C9.42174 1.58316 7.71104 2.32205 6.31595 3.39621C5.82268 3.77523 5.35283 4.18234 4.90888 4.61546L4.78057 4.74222C4.80872 4.83411 4.83589 4.92609 4.86212 5.01817C4.83529 4.92605 4.80781 4.83407 4.77971 4.74222C4.3828 5.13769 4.00789 5.55361 3.65662 5.98817C0.033315 10.4691 0.131681 18.1916 0.387454 24.7798C0.402767 25.1728 0.418625 25.5616 0.434281 25.9454V25.9456L0.434291 25.9458L0.434332 25.9467C0.501734 27.5994 0.565368 29.1596 0.565368 30.5542H0.634649C2.04577 30.5542 3.61958 30.616 5.28465 30.6811C6.31641 30.7216 7.3832 30.7635 8.46802 30.7929C9.10383 30.5315 9.72969 30.2408 10.3455 29.9204C12.9936 28.5301 15.3116 26.6319 17.1665 24.3515C15.3115 26.6321 12.9935 28.5304 10.3452 29.9208C9.72939 30.241 9.10353 30.5318 8.46772 30.7931C10.2007 30.84 11.9798 30.8565 13.7342 30.7881C18.3274 30.6096 22.7548 29.8516 25.7587 27.5406C26.7462 26.7815 27.6386 25.9114 28.4172 24.9488C30.8534 21.934 31.6077 17.4564 31.7625 12.8437C31.733 12.6736 31.7016 12.5027 31.6685 12.3314ZM18.9913 21.7329C19.6105 21.5411 20.122 21.3068 20.4923 21.0216C20.7229 20.8445 20.9425 20.6543 21.1501 20.452C21.3572 20.2495 21.5522 20.0356 21.7343 19.8115C23.1559 18.0518 23.3509 13.0497 23.2655 8.42287C22.7522 8.41371 22.2339 8.40787 21.7164 8.4062L21.7163 8.40581C18.7418 8.39751 15.7725 8.53515 13.7019 9.03545C13.694 8.95051 13.6855 8.86561 13.6765 8.78071C13.6834 8.86556 13.6907 8.95048 13.6985 9.03547C12.8021 9.25397 12.0734 9.54086 11.585 9.91531C11.1242 10.27 10.7076 10.6762 10.3438 11.1254C8.92137 12.8842 8.72719 17.8872 8.81273 22.514C9.30969 22.5224 9.8118 22.5299 10.313 22.5299C13.613 22.5407 16.9121 22.3764 18.9915 21.7326C18.9914 21.7327 18.9914 21.7328 18.9913 21.7329Z" fill="#2C7955"/>
<path d="M39.2246 27.032V26.6817L39.9429 26.4367C40.7568 26.1798 41.1639 25.5146 41.1639 24.4407V6.51278C41.1639 6.0459 41.104 5.67241 40.9843 5.39228C40.8886 5.11217 40.6132 4.87872 40.1583 4.69197L39.2246 4.27177V3.92163H46.156L52.8 20.8691L59.049 3.92163H66.1241V4.27177L65.5494 4.48187C65.0945 4.64529 64.7831 4.87872 64.6155 5.1822C64.448 5.46231 64.3642 5.8358 64.3642 6.30268V24.6158C64.3642 25.0826 64.4241 25.4444 64.5438 25.7013C64.6636 25.9581 64.9509 26.1798 65.4058 26.3665L66.1241 26.6817V27.032H57.1815V26.6817L57.9355 26.3665C58.3906 26.1798 58.6779 25.9581 58.7975 25.7013C58.9172 25.4444 58.9771 25.0826 58.9771 24.6158V16.7373L59.049 6.72288L51.543 27.032H49.7472L41.9181 6.96798L42.0258 15.6869V24.5108C42.0258 25.0242 42.0975 25.4444 42.2412 25.7714C42.409 26.0748 42.7202 26.2966 43.1751 26.4367L43.9651 26.6817V27.032H39.2246Z" fill="#373737"/>
<path d="M71.9429 7.84338C71.1287 7.84338 70.4346 7.59825 69.86 7.10805C69.3092 6.59449 69.0337 5.95254 69.0337 5.1822C69.0337 4.38851 69.3092 3.74656 69.86 3.25633C70.4346 2.76612 71.1287 2.521 71.9429 2.521C72.7568 2.521 73.4394 2.76612 73.9899 3.25633C74.5406 3.74656 74.8161 4.38851 74.8161 5.1822C74.8161 5.95254 74.5406 6.59449 73.9899 7.10805C73.4394 7.59825 72.7568 7.84338 71.9429 7.84338ZM67.7051 27.032V26.6817L68.2078 26.5417C68.6868 26.4016 69.0098 26.1916 69.1774 25.9115C69.3691 25.6313 69.4647 25.2578 69.4647 24.7909V13.831C69.4647 13.3408 69.3691 12.979 69.1774 12.7455C69.0098 12.4888 68.6868 12.3137 68.2078 12.2203L67.7051 12.1153V11.7651L74.2772 9.69919L74.6364 10.0494L74.5287 15.0216V24.826C74.5287 25.2928 74.6125 25.6662 74.7801 25.9463C74.9716 26.2264 75.2949 26.4367 75.7497 26.5767L76.1088 26.6817V27.032H67.7051Z" fill="#373737"/>
<path d="M77.6992 27.032V26.6817L78.2019 26.5416C79.04 26.3081 79.4589 25.7363 79.4589 24.826V13.866C79.4589 13.3525 79.3751 12.979 79.2075 12.7455C79.04 12.4888 78.7167 12.3137 78.2379 12.2203L77.6992 12.0803V11.7301L83.8403 9.69919L84.1996 10.0494L84.4869 12.1503C85.3247 11.4266 86.2705 10.8314 87.3241 10.3645C88.3775 9.89761 89.4189 9.66418 90.4486 9.66418C92.0287 9.66418 93.2378 10.0844 94.0758 10.9247C94.9378 11.7651 95.3688 13.049 95.3688 14.7764V24.8609C95.3688 25.7714 95.8237 26.3432 96.7334 26.5767L97.0567 26.6817V27.032H88.5811V26.6817L89.0478 26.5416C89.8858 26.2848 90.3047 25.713 90.3047 24.826V13.6559C90.3047 12.1619 89.5387 11.415 88.0064 11.415C86.953 11.415 85.8038 11.9285 84.5586 12.9556V24.8609C84.5586 25.7714 84.9775 26.3432 85.8156 26.5767L86.1389 26.6817V27.032H77.6992Z" fill="#373737"/>
<path d="M105.11 27.059C103.577 27.059 102.38 26.6856 101.518 25.9387C100.68 25.1915 100.261 24.0011 100.261 22.367V10.3917H97.7832V10.0415L98.6452 9.90145C99.3874 9.73803 100.022 9.5046 100.549 9.20114C101.099 8.89766 101.638 8.48916 102.165 7.9756L105.11 4.78918H105.469L105.361 9.69135H109.383V10.3917H105.325V22.9973C105.325 23.8144 105.505 24.4328 105.864 24.853C106.247 25.2732 106.726 25.4834 107.3 25.4834C107.803 25.4834 108.246 25.3666 108.629 25.1331C109.012 24.8765 109.395 24.538 109.778 24.1178L110.138 24.4679C109.659 25.2617 109 25.8918 108.162 26.3589C107.324 26.8257 106.307 27.059 105.11 27.059Z" fill="#373737"/>
<path d="M122.345 5.09361V4.98047H122.229H120.365H120.249V5.09361V9.73062H115.135V5.09361V4.98047H115.019H113.155H113.039V5.09361V16.172V16.2851H113.155H115.019H115.135V16.172V11.4393H120.249V16.172V16.2851H120.365H122.229H122.345V16.172V5.09361ZM130.484 16.2284L130.517 16.2851H130.584H132.808H133.012L132.908 16.114L130.175 11.6528C131.013 11.4272 131.649 11.0288 132.069 10.4513C132.518 9.83731 132.744 9.15558 132.744 8.40916C132.744 7.77402 132.587 7.19618 132.271 6.67834C131.963 6.1572 131.493 5.74468 130.865 5.43893C130.246 5.13137 129.491 4.98047 128.606 4.98047H124.682H124.566V5.09361V16.172V16.2851H124.682H126.546H126.662V16.172V11.8538H127.901L130.484 16.2284ZM130.095 9.69876L130.094 9.7C129.774 10.0114 129.286 10.177 128.606 10.177H126.662V6.68918H128.606C129.298 6.68918 129.792 6.8502 130.111 7.15144L130.113 7.15271C130.433 7.44535 130.599 7.85883 130.599 8.40916C130.599 8.95818 130.428 9.38376 130.095 9.69876Z" fill="#2C7955" stroke="#2C7955"/>
</svg>
